<svg width="220.98249511718748px" height="125.61248779296875px" xmlns="http://www.w3.org/2000/svg" viewBox="139.50875244140627 12.193756103515625 220.98249511718748 125.61248779296875" style="background: rgba(0, 0, 0, 0);" preserveAspectRatio="xMidYMid"><defs><filter id="editing-extrude-glow"><feFlood flood-color="#333333" result="flood-1"></feFlood><feMorphology operator="erode" radius="1" in="SourceAlpha" result="erode"></feMorphology><feComposite operator="in" in="flood-1" in2="erode" result="comp1"></feComposite><feConvolveMatrix order="3,3" divisor="1" in="comp1" result="convolve" kernelMatrix="0 0 0 1 1 1 0 0 0"></feConvolveMatrix><feOffset dx="-3" dy="0" in="convolve" result="extrude"></feOffset><feComposite operator="in" in="flood-1" in2="extrude" result="comp-extrude"></feComposite><feFlood flood-color="#000000" result="flood-2"></feFlood><feComposite operator="in" in="flood-2" in2="SourceAlpha" result="comp2"></feComposite><feMorphology operator="dilate" radius="1" in="comp2" result="dilate"></feMorphology><feOffset dx="-4.5" dy="0" in="dilate" result="offset"></feOffset><feGaussianBlur in="offset" stdDeviation="5.8" result="blur"></feGaussianBlur><feComponentTransfer in="blur" result="shadow"><feFuncA type="linear" slope="0.8" intercept="-0.2"></feFuncA></feComponentTransfer><feMerge><feMergeNode in="shadow"></feMergeNode><feMergeNode in="comp-extrude"></feMergeNode><feMergeNode in="SourceGraphic"></feMergeNode></feMerge></filter></defs><g filter="url(#editing-extrude-glow)"><g transform="translate(178.60562658309937, 107.4375)"><path d="M1.92 5.57L1.92 5.57Q0.70 5.57-0.70 4.86L-0.70 4.86L-0.70 4.86Q-2.11 4.16-2.94 2.94L-2.94 2.94L-2.94 2.94Q-1.66 3.07-0.90 3.07L-0.90 3.07L-0.90 3.07Q1.92 3.07 6.02 2.37L6.02 2.37L6.02 2.37Q7.74-1.60 9.25-8.16L9.25-8.16L9.25-8.16Q10.75-14.72 12.67-24.90L12.67-24.90L12.67-24.90Q14.08-32.70 15.23-37.38L15.23-37.38L15.23-37.38Q9.28-33.15 7.87-33.15L7.87-33.15L7.87-33.15Q7.04-33.15 6.66-33.54L6.66-33.54L6.66-33.54Q6.27-33.92 6.27-35.01L6.27-35.01L6.27-35.01Q8.38-36.10 12.48-39.36L12.48-39.36L12.48-39.36Q16.58-42.62 19.71-46.08L19.71-46.08L19.71-46.08Q20.29-45.57 20.29-44.10L20.29-44.10L20.29-44.10Q20.29-42.94 19.52-40.13L19.52-40.13L19.52-40.13Q19.07-38.21 18.82-36.93L18.82-36.93L18.82-36.93Q17.28-26.30 14.72-15.46L14.72-15.46L14.72-15.46Q12.16-4.61 9.09 1.92L9.09 1.92L9.09 1.92Q10.43 1.73 11.65 1.73L11.65 1.73L11.65 1.73Q14.34 1.73 15.90 2.50L15.90 2.50L15.90 2.50Q17.47 3.26 17.86 5.31L17.86 5.31L17.86 5.31Q14.98 4.99 12.80 4.99L12.80 4.99L12.80 4.99Q9.98 4.99 6.91 5.31L6.91 5.31L6.91 5.31Q3.58 5.57 1.92 5.57L1.92 5.57ZM44.03 1.28L44.03 1.28Q41.86 1.28 40.70 0.16L40.70 0.16L40.70 0.16Q39.55-0.96 39.55-2.82L39.55-2.82L39.55-2.82Q39.55-3.65 39.84-4.77L39.84-4.77L39.84-4.77Q40.13-5.89 40.45-6.98L40.45-6.98L40.45-6.98Q40.83-8.13 41.12-9.41L41.12-9.41L41.12-9.41Q41.41-10.69 41.41-11.71L41.41-11.71L41.41-11.71Q41.41-14.85 38.85-14.85L38.85-14.85L38.85-14.85Q36.42-14.85 33.76-12.29L33.76-12.29L33.76-12.29Q31.10-9.73 29.02-6.59L29.02-6.59L29.02-6.59Q26.94-3.46 24.32 0.96L24.32 0.96L24.32 0.96Q23.23 0.96 22.34 0.61L22.34 0.61L22.34 0.61Q21.44 0.26 20.93-0.45L20.93-0.45L20.93-0.45Q20.93-0.77 21.76-2.75L21.76-2.75L21.76-2.75Q23.36-6.85 24.38-10.21L24.38-10.21L24.38-10.21Q25.41-13.57 25.47-16.19L25.47-16.19L25.47-16.19Q25.92-16.70 26.75-17.12L26.75-17.12L26.75-17.12Q27.58-17.54 28.42-17.54L28.42-17.54L28.42-17.54Q30.14-17.54 30.14-15.87L30.14-15.87L30.14-15.87Q30.14-14.91 29.57-12.51L29.57-12.51L29.57-12.51Q28.99-10.11 28.10-7.42L28.10-7.42L28.10-7.42Q31.17-12.16 34.62-15.42L34.62-15.42L34.62-15.42Q38.08-18.69 41.41-18.69L41.41-18.69L41.41-18.69Q43.78-18.69 44.96-16.99L44.96-16.99L44.96-16.99Q46.14-15.30 46.14-12.93L46.14-12.93L46.14-12.93Q46.14-11.52 45.79-10.24L45.79-10.24L45.79-10.24Q45.44-8.96 44.74-7.30L44.74-7.30L44.74-7.30Q44.16-5.89 43.84-4.86L43.84-4.86L43.84-4.86Q43.52-3.84 43.52-2.82L43.52-2.82L43.52-2.82Q43.52-0.38 45.44-0.38L45.44-0.38L45.44-0.38Q47.62-0.38 49.95-3.26L49.95-3.26L49.95-3.26Q52.29-6.14 54.40-10.37L54.40-10.37L55.10-9.54L55.10-9.54Q50.50 1.28 44.03 1.28L44.03 1.28ZM65.47-27.65L65.47-27.65Q64.32-27.65 63.58-28.19L63.58-28.19L63.58-28.19Q62.85-28.74 62.85-29.76L62.85-29.76L62.85-29.76Q62.85-31.04 64.38-32.06L64.38-32.06L64.38-32.06Q65.92-33.09 67.52-33.09L67.52-33.09L67.52-33.09Q69.63-33.09 69.63-31.10L69.63-31.10L69.63-31.10Q69.63-29.89 68.32-28.77L68.32-28.77L68.32-28.77Q67.01-27.65 65.47-27.65L65.47-27.65ZM57.79 1.66L57.79 1.66Q55.42 1.66 54.14 0.16L54.14 0.16L54.14 0.16Q52.86-1.34 52.86-3.71L52.86-3.71L52.86-3.71Q52.86-6.21 54.30-10.62L54.30-10.62L54.30-10.62Q55.74-15.04 57.89-18.37L57.89-18.37L57.89-18.37Q60.03-21.70 62.08-21.70L62.08-21.70L62.08-21.70Q62.66-21.70 63.07-21.31L63.07-21.31L63.07-21.31Q63.49-20.93 63.49-20.29L63.49-20.29L63.49-20.29Q63.49-19.39 61.44-16L61.44-16L61.44-16Q59.33-12.48 58.08-9.70L58.08-9.70L58.08-9.70Q56.83-6.91 56.83-4.42L56.83-4.42L56.83-4.42Q56.83-2.18 57.57-1.38L57.57-1.38L57.57-1.38Q58.30-0.58 59.97-0.58L59.97-0.58L59.97-0.58Q64.96-0.58 69.82-10.37L69.82-10.37L70.40-9.73L70.40-9.73Q68.61-4.35 65.12-1.34L65.12-1.34L65.12-1.34Q61.63 1.66 57.79 1.66L57.79 1.66ZM71.04 17.92L71.04 17.92Q69.50 17.92 68.42 16.99L68.42 16.99L68.42 16.99Q67.33 16.06 67.33 14.21L67.33 14.21L67.33 14.21Q67.33 11.84 69.18 9.82L69.18 9.82L69.18 9.82Q71.04 7.81 73.44 6.37L73.44 6.37L73.44 6.37Q75.84 4.93 79.81 2.94L79.81 2.94L79.81 2.94Q81.60-1.66 83.07-7.62L83.07-7.62L83.07-7.62Q77.38 0.58 72.64 0.58L72.64 0.58L72.64 0.58Q70.40 0.58 69.12-1.12L69.12-1.12L69.12-1.12Q67.84-2.82 67.84-5.63L67.84-5.63L67.84-5.63Q67.84-9.86 70.56-13.70L70.56-13.70L70.56-13.70Q73.28-17.54 77.28-19.87L77.28-19.87L77.28-19.87Q81.28-22.21 84.80-22.21L84.80-22.21L84.80-22.21Q86.53-22.21 87.39-21.63L87.39-21.63L87.39-21.63Q88.26-21.06 88.26-20.16L88.26-20.16L88.26-20.16Q88.26-19.65 87.97-19.30L87.97-19.30L87.97-19.30Q87.68-18.94 87.49-18.88L87.49-18.88L87.49-18.88Q86.85-19.84 84.93-19.84L84.93-19.84L84.93-19.84Q81.73-19.84 78.75-17.41L78.75-17.41L78.75-17.41Q75.78-14.98 73.92-11.52L73.92-11.52L73.92-11.52Q72.06-8.06 72.06-5.31L72.06-5.31L72.06-5.31Q72.06-3.78 72.67-2.98L72.67-2.98L72.67-2.98Q73.28-2.18 74.30-2.18L74.30-2.18L74.30-2.18Q76.03-2.18 78.62-4.54L78.62-4.54L78.62-4.54Q81.22-6.91 83.78-10.62L83.78-10.62L84.54-14.02L84.54-14.02Q84.80-15.23 85.60-16.26L85.60-16.26L85.60-16.26Q86.40-17.28 87.81-17.28L87.81-17.28L87.81-17.28Q88.38-17.28 89.15-17.09L89.15-17.09L89.15-17.09Q89.15-15.36 87.74-10.14L87.74-10.14L87.74-10.14Q86.34-4.93 84.22 0.45L84.22 0.45L84.22 0.45Q87.55-1.15 90.40-4L90.40-4L90.40-4Q93.25-6.85 94.66-10.37L94.66-10.37L95.49-9.73L95.49-9.73Q94.14-5.82 90.66-2.62L90.66-2.62L90.66-2.62Q87.17 0.58 83.52 2.30L83.52 2.30L83.52 2.30Q80.51 9.60 77.44 13.76L77.44 13.76L77.44 13.76Q74.37 17.92 71.04 17.92L71.04 17.92ZM70.85 15.87L70.85 15.87Q72.32 15.87 74.53 13.09L74.53 13.09L74.53 13.09Q76.74 10.30 79.10 4.67L79.10 4.67L79.10 4.67Q74.43 7.04 71.87 9.09L71.87 9.09L71.87 9.09Q69.31 11.14 69.31 13.63L69.31 13.63L69.31 13.63Q69.31 14.66 69.73 15.26L69.73 15.26L69.73 15.26Q70.14 15.87 70.85 15.87L70.85 15.87ZM96.51 2.43L96.51 2.43Q95.36 2.43 94.62 0.45L94.62 0.45L94.62 0.45Q93.89-1.54 93.89-4.22L93.89-4.22L93.89-4.22Q93.89-10.11 97.50-20.10L97.50-20.10L97.50-20.10Q101.12-30.08 105.73-37.89L105.73-37.89L105.73-37.89Q110.34-45.70 113.02-45.70L113.02-45.70L113.02-45.70Q114.05-45.70 114.59-44.45L114.59-44.45L114.59-44.45Q115.14-43.20 115.14-41.66L115.14-41.66L115.14-41.66Q115.14-38.66 112.99-33.66L112.99-33.66L112.99-33.66Q110.85-28.67 107.42-24.06L107.42-24.06L107.42-24.06Q104-19.46 100.42-17.28L100.42-17.28L100.42-17.28Q99.26-14.59 98.66-11.04L98.66-11.04L98.66-11.04Q98.05-7.49 98.05-4.67L98.05-4.67L98.05-4.67Q98.05-3.65 98.18-2.50L98.18-2.50L98.18-2.50Q100.74-9.92 103.97-14.50L103.97-14.50L103.97-14.50Q107.20-19.07 111.17-19.07L111.17-19.07L111.17-19.07Q113.60-19.07 114.82-17.38L114.82-17.38L114.82-17.38Q116.03-15.68 116.03-13.31L116.03-13.31L116.03-13.31Q116.03-11.90 115.68-10.62L115.68-10.62L115.68-10.62Q115.33-9.34 114.56-7.30L114.56-7.30L114.56-7.30Q113.92-5.57 113.60-4.54L113.60-4.54L113.60-4.54Q113.28-3.52 113.28-2.56L113.28-2.56L113.28-2.56Q113.28-1.34 113.79-0.74L113.79-0.74L113.79-0.74Q114.30-0.13 115.20-0.13L115.20-0.13L115.20-0.13Q117.38-0.13 120.32-3.17L120.32-3.17L120.32-3.17Q123.26-6.21 125.18-10.37L125.18-10.37L126.02-9.60L126.02-9.60Q123.90-4.74 120.61-1.60L120.61-1.60L120.61-1.60Q117.31 1.54 113.73 1.54L113.73 1.54L113.73 1.54Q111.62 1.54 110.46 0.42L110.46 0.42L110.46 0.42Q109.31-0.70 109.31-2.50L109.31-2.50L109.31-2.50Q109.31-3.90 110.27-7.04L110.27-7.04L110.27-7.04Q111.30-10.50 111.30-12.16L111.30-12.16L111.30-12.16Q111.30-13.76 110.62-14.50L110.62-14.50L110.62-14.50Q109.95-15.23 108.86-15.23L108.86-15.23L108.86-15.23Q106.50-15.23 104.74-12.45L104.74-12.45L104.74-12.45Q102.98-9.66 100.93-4.61L100.93-4.61L100.93-4.61Q99.39-0.90 98.50 0.77L98.50 0.77L98.50 0.77Q97.60 2.43 96.51 2.43L96.51 2.43ZM101.25-19.78L101.25-19.78Q104-21.95 106.72-26.08L106.72-26.08L106.72-26.08Q109.44-30.21 111.20-34.27L111.20-34.27L111.20-34.27Q112.96-38.34 112.96-40L112.96-40L112.96-40Q112.96-40.51 112.70-40.51L112.70-40.51L112.70-40.51Q112-40.51 109.79-37.34L109.79-37.34L109.79-37.34Q107.58-34.18 105.15-29.38L105.15-29.38L105.15-29.38Q102.72-24.58 101.25-19.78L101.25-19.78ZM129.41 2.94L129.41 2.94Q123.71 2.94 123.71-3.39L123.71-3.39L123.71-3.39Q123.71-6.14 124.70-10.21L124.70-10.21L124.70-10.21Q125.70-14.27 127.42-18.82L127.42-18.82L127.42-18.82Q125.89-19.07 125.12-19.33L125.12-19.33L125.12-20.48L125.12-20.48Q127.42-20.22 127.94-20.22L127.94-20.22L127.94-20.22Q130.75-27.52 133.98-32.86L133.98-32.86L133.98-32.86Q137.22-38.21 139.07-38.21L139.07-38.21L139.07-38.21Q139.58-38.21 140-37.82L140-37.82L140-37.82Q140.42-37.44 140.42-36.80L140.42-36.80L140.42-36.80Q140.42-35.97 139.62-34.37L139.62-34.37L139.62-34.37Q138.82-32.77 136.90-29.44L136.90-29.44L136.90-29.44Q136.58-28.80 134.91-25.89L134.91-25.89L134.91-25.89Q133.25-22.98 131.90-20.03L131.90-20.03L134.27-20.03L134.27-20.03Q139.58-20.03 143.42-20.42L143.42-20.42L143.42-19.26L143.42-19.26Q136.45-18.50 132.16-18.50L132.16-18.50L131.20-18.50L131.20-18.50Q127.68-10.43 127.68-4.54L127.68-4.54L127.68-4.54Q127.68-1.79 128.51-0.61L128.51-0.61L128.51-0.61Q129.34 0.58 131.26 0.58L131.26 0.58L131.26 0.58Q134.53 0.58 137.73-2.34L137.73-2.34L137.73-2.34Q140.93-5.25 143.42-10.37L143.42-10.37L144.26-9.73L144.26-9.73Q141.89-4.16 137.86-0.61L137.86-0.61L137.86-0.61Q133.82 2.94 129.41 2.94L129.41 2.94Z" fill="#ff0048"></path></g></g><style>text {
  font-size: 64px;
  font-family: Arial Black;
  dominant-baseline: central;
  text-anchor: middle;
}</style></svg>